<?xml version="1.0" encoding="UTF-8" standalone="no"?>
<!DOCTYPE svg PUBLIC "-//W3C//DTD SVG 1.1//EN"
 "http://www.w3.org/Graphics/SVG/1.1/DTD/svg11.dtd">
<!-- Generated by graphviz version 2.47.0 (20210316.0004)
 -->
<!-- Title: dependencies Pages: 1 -->
<svg width="1913pt" height="284pt"
 viewBox="0.00 0.00 1913.00 284.00" xmlns="http://www.w3.org/2000/svg" xmlns:xlink="http://www.w3.org/1999/xlink">
<g id="graph0" class="graph" transform="scale(1 1) rotate(0) translate(4 280)">
<title>dependencies</title>
<polygon fill="white" stroke="transparent" points="-4,4 -4,-280 1909,-280 1909,4 -4,4"/>
<text text-anchor="start" x="931.51" y="-42.4" font-family="sans-serif" font-weight="bold" font-size="14.00">Legend</text>
<polygon fill="#ffffb3" stroke="transparent" points="718.5,-10 718.5,-30 738.5,-30 738.5,-10 718.5,-10"/>
<text text-anchor="start" x="742.13" y="-15.4" font-family="sans-serif" font-size="14.00"> &#160;Declarations</text>
<polygon fill="#8dd3c7" stroke="transparent" points="831.5,-10 831.5,-30 851.5,-30 851.5,-10 831.5,-10"/>
<text text-anchor="start" x="855.23" y="-15.4" font-family="sans-serif" font-size="14.00"> &#160;Module</text>
<polygon fill="#80b1d3" stroke="transparent" points="917.5,-10 917.5,-30 937.5,-30 937.5,-10 917.5,-10"/>
<text text-anchor="start" x="941.28" y="-15.4" font-family="sans-serif" font-size="14.00"> &#160;Bootstrap</text>
<polygon fill="#fdb462" stroke="transparent" points="1014.5,-10 1014.5,-30 1034.5,-30 1034.5,-10 1014.5,-10"/>
<text text-anchor="start" x="1038.17" y="-15.4" font-family="sans-serif" font-size="14.00"> &#160;Providers</text>
<polygon fill="#fb8072" stroke="transparent" points="1110.5,-10 1110.5,-30 1130.5,-30 1130.5,-10 1110.5,-10"/>
<text text-anchor="start" x="1134.23" y="-15.4" font-family="sans-serif" font-size="14.00"> &#160;Exports</text>
<g id="clust1" class="cluster">
<title>cluster_AppModule</title>
<polygon fill="none" stroke="black" stroke-dasharray="1,5" points="8,-70 8,-268 1897,-268 1897,-70 8,-70"/>
</g>
<g id="clust2" class="cluster">
<title>cluster_AppModule_declarations</title>
<polygon fill="none" stroke="black" points="168,-78 168,-130 1889,-130 1889,-78 168,-78"/>
</g>
<g id="clust15" class="cluster">
<title>cluster_AppModule_imports</title>
<polygon fill="none" stroke="black" points="16,-78 16,-130 160,-130 160,-78 16,-78"/>
</g>
<g id="clust17" class="cluster">
<title>cluster_AppModule_bootstrap</title>
<polygon fill="none" stroke="black" points="940,-208 940,-260 1064,-260 1064,-208 940,-208"/>
</g>
<!-- AppComponent -->
<g id="node1" class="node">
<title>AppComponent</title>
<polygon fill="#ffffb3" stroke="black" points="1880.94,-122 1775.06,-122 1775.06,-86 1880.94,-86 1880.94,-122"/>
<text text-anchor="middle" x="1828" y="-99.8" font-family="Times,serif" font-size="14.00">AppComponent</text>
</g>
<!-- AppModule -->
<g id="node13" class="node">
<title>AppModule</title>
<polygon fill="#8dd3c7" stroke="black" points="1043.66,-187 1040.66,-191 1019.66,-191 1016.66,-187 960.34,-187 960.34,-151 1043.66,-151 1043.66,-187"/>
<text text-anchor="middle" x="1002" y="-164.8" font-family="Times,serif" font-size="14.00">AppModule</text>
</g>
<!-- AppComponent&#45;&gt;AppModule -->
<g id="edge1" class="edge">
<title>AppComponent&#45;&gt;AppModule</title>
<path fill="none" stroke="black" d="M1828,-122.09C1828,-145.13 1828,-182 1828,-182 1828,-182 1053.81,-182 1053.81,-182"/>
<polygon fill="black" stroke="black" points="1053.81,-178.5 1043.81,-182 1053.81,-185.5 1053.81,-178.5"/>
</g>
<!-- CinemaComponent -->
<g id="node2" class="node">
<title>CinemaComponent</title>
<polygon fill="#ffffb3" stroke="black" points="1757.38,-122 1632.62,-122 1632.62,-86 1757.38,-86 1757.38,-122"/>
<text text-anchor="middle" x="1695" y="-99.8" font-family="Times,serif" font-size="14.00">CinemaComponent</text>
</g>
<!-- CinemaComponent&#45;&gt;AppModule -->
<g id="edge2" class="edge">
<title>CinemaComponent&#45;&gt;AppModule</title>
<path fill="none" stroke="black" d="M1695,-122.04C1695,-143.66 1695,-177 1695,-177 1695,-177 1053.79,-177 1053.79,-177"/>
<polygon fill="black" stroke="black" points="1053.79,-173.5 1043.79,-177 1053.79,-180.5 1053.79,-173.5"/>
</g>
<!-- CinemasComponent -->
<g id="node3" class="node">
<title>CinemasComponent</title>
<polygon fill="#ffffb3" stroke="black" points="1614.32,-122 1483.68,-122 1483.68,-86 1614.32,-86 1614.32,-122"/>
<text text-anchor="middle" x="1549" y="-99.8" font-family="Times,serif" font-size="14.00">CinemasComponent</text>
</g>
<!-- CinemasComponent&#45;&gt;AppModule -->
<g id="edge3" class="edge">
<title>CinemasComponent&#45;&gt;AppModule</title>
<path fill="none" stroke="black" d="M1549,-122.22C1549,-142.37 1549,-172 1549,-172 1549,-172 1054.01,-172 1054.01,-172"/>
<polygon fill="black" stroke="black" points="1054.01,-168.5 1044.01,-172 1054.01,-175.5 1054.01,-168.5"/>
</g>
<!-- FooterComponent -->
<g id="node4" class="node">
<title>FooterComponent</title>
<polygon fill="#ffffb3" stroke="black" points="1465.88,-122 1348.12,-122 1348.12,-86 1465.88,-86 1465.88,-122"/>
<text text-anchor="middle" x="1407" y="-99.8" font-family="Times,serif" font-size="14.00">FooterComponent</text>
</g>
<!-- FooterComponent&#45;&gt;AppModule -->
<g id="edge4" class="edge">
<title>FooterComponent&#45;&gt;AppModule</title>
<path fill="none" stroke="black" d="M1407,-122.22C1407,-140.83 1407,-167 1407,-167 1407,-167 1053.82,-167 1053.82,-167"/>
<polygon fill="black" stroke="black" points="1053.82,-163.5 1043.82,-167 1053.82,-170.5 1053.82,-163.5"/>
</g>
<!-- HomeComponent -->
<g id="node5" class="node">
<title>HomeComponent</title>
<polygon fill="#ffffb3" stroke="black" points="1329.55,-122 1214.45,-122 1214.45,-86 1329.55,-86 1329.55,-122"/>
<text text-anchor="middle" x="1272" y="-99.8" font-family="Times,serif" font-size="14.00">HomeComponent</text>
</g>
<!-- HomeComponent&#45;&gt;AppModule -->
<g id="edge5" class="edge">
<title>HomeComponent&#45;&gt;AppModule</title>
<path fill="none" stroke="black" d="M1272,-122.03C1272,-139.06 1272,-162 1272,-162 1272,-162 1053.89,-162 1053.89,-162"/>
<polygon fill="black" stroke="black" points="1053.89,-158.5 1043.89,-162 1053.89,-165.5 1053.89,-158.5"/>
</g>
<!-- LoginComponent -->
<g id="node6" class="node">
<title>LoginComponent</title>
<polygon fill="#ffffb3" stroke="black" points="1196.28,-122 1081.72,-122 1081.72,-86 1196.28,-86 1196.28,-122"/>
<text text-anchor="middle" x="1139" y="-99.8" font-family="Times,serif" font-size="14.00">LoginComponent</text>
</g>
<!-- LoginComponent&#45;&gt;AppModule -->
<g id="edge6" class="edge">
<title>LoginComponent&#45;&gt;AppModule</title>
<path fill="none" stroke="black" d="M1139,-122.24C1139,-137.57 1139,-157 1139,-157 1139,-157 1053.85,-157 1053.85,-157"/>
<polygon fill="black" stroke="black" points="1053.85,-153.5 1043.85,-157 1053.85,-160.5 1053.85,-153.5"/>
</g>
<!-- MoviesComponent -->
<g id="node7" class="node">
<title>MoviesComponent</title>
<polygon fill="#ffffb3" stroke="black" points="1063.83,-122 940.17,-122 940.17,-86 1063.83,-86 1063.83,-122"/>
<text text-anchor="middle" x="1002" y="-99.8" font-family="Times,serif" font-size="14.00">MoviesComponent</text>
</g>
<!-- MoviesComponent&#45;&gt;AppModule -->
<g id="edge7" class="edge">
<title>MoviesComponent&#45;&gt;AppModule</title>
<path fill="none" stroke="black" d="M1002,-122.11C1002,-122.11 1002,-140.99 1002,-140.99"/>
<polygon fill="black" stroke="black" points="998.5,-140.99 1002,-150.99 1005.5,-140.99 998.5,-140.99"/>
</g>
<!-- SessionComponent -->
<g id="node8" class="node">
<title>SessionComponent</title>
<polygon fill="#ffffb3" stroke="black" points="922.11,-122 797.89,-122 797.89,-86 922.11,-86 922.11,-122"/>
<text text-anchor="middle" x="860" y="-99.8" font-family="Times,serif" font-size="14.00">SessionComponent</text>
</g>
<!-- SessionComponent&#45;&gt;AppModule -->
<g id="edge8" class="edge">
<title>SessionComponent&#45;&gt;AppModule</title>
<path fill="none" stroke="black" d="M860,-122.24C860,-137.57 860,-157 860,-157 860,-157 950.16,-157 950.16,-157"/>
<polygon fill="black" stroke="black" points="950.16,-160.5 960.16,-157 950.16,-153.5 950.16,-160.5"/>
</g>
<!-- SessionsClientComponent -->
<g id="node9" class="node">
<title>SessionsClientComponent</title>
<polygon fill="#ffffb3" stroke="black" points="779.78,-122 616.22,-122 616.22,-86 779.78,-86 779.78,-122"/>
<text text-anchor="middle" x="698" y="-99.8" font-family="Times,serif" font-size="14.00">SessionsClientComponent</text>
</g>
<!-- SessionsClientComponent&#45;&gt;AppModule -->
<g id="edge9" class="edge">
<title>SessionsClientComponent&#45;&gt;AppModule</title>
<path fill="none" stroke="black" d="M698,-122.03C698,-139.06 698,-162 698,-162 698,-162 950.05,-162 950.05,-162"/>
<polygon fill="black" stroke="black" points="950.05,-165.5 960.05,-162 950.05,-158.5 950.05,-165.5"/>
</g>
<!-- SessionsComponent -->
<g id="node10" class="node">
<title>SessionsComponent</title>
<polygon fill="#ffffb3" stroke="black" points="597.55,-122 468.45,-122 468.45,-86 597.55,-86 597.55,-122"/>
<text text-anchor="middle" x="533" y="-99.8" font-family="Times,serif" font-size="14.00">SessionsComponent</text>
</g>
<!-- SessionsComponent&#45;&gt;AppModule -->
<g id="edge10" class="edge">
<title>SessionsComponent&#45;&gt;AppModule</title>
<path fill="none" stroke="black" d="M533,-122.22C533,-140.83 533,-167 533,-167 533,-167 949.97,-167 949.97,-167"/>
<polygon fill="black" stroke="black" points="949.97,-170.5 959.97,-167 949.97,-163.5 949.97,-170.5"/>
</g>
<!-- TheatersComponent -->
<g id="node11" class="node">
<title>TheatersComponent</title>
<polygon fill="#ffffb3" stroke="black" points="449.53,-122 320.47,-122 320.47,-86 449.53,-86 449.53,-122"/>
<text text-anchor="middle" x="385" y="-99.8" font-family="Times,serif" font-size="14.00">TheatersComponent</text>
</g>
<!-- TheatersComponent&#45;&gt;AppModule -->
<g id="edge11" class="edge">
<title>TheatersComponent&#45;&gt;AppModule</title>
<path fill="none" stroke="black" d="M385,-122.22C385,-142.37 385,-172 385,-172 385,-172 950.08,-172 950.08,-172"/>
<polygon fill="black" stroke="black" points="950.08,-175.5 960.08,-172 950.08,-168.5 950.08,-175.5"/>
</g>
<!-- ToolbarComponent -->
<g id="node12" class="node">
<title>ToolbarComponent</title>
<polygon fill="#ffffb3" stroke="black" points="301.65,-122 176.35,-122 176.35,-86 301.65,-86 301.65,-122"/>
<text text-anchor="middle" x="239" y="-99.8" font-family="Times,serif" font-size="14.00">ToolbarComponent</text>
</g>
<!-- ToolbarComponent&#45;&gt;AppModule -->
<g id="edge12" class="edge">
<title>ToolbarComponent&#45;&gt;AppModule</title>
<path fill="none" stroke="black" d="M239,-122.04C239,-143.66 239,-177 239,-177 239,-177 950.16,-177 950.16,-177"/>
<polygon fill="black" stroke="black" points="950.16,-180.5 960.16,-177 950.16,-173.5 950.16,-180.5"/>
</g>
<!-- AppComponent  -->
<g id="node15" class="node">
<title>AppComponent </title>
<polygon fill="#80b1d3" stroke="black" points="1056.44,-252 947.56,-252 947.56,-216 1056.44,-216 1056.44,-252"/>
<text text-anchor="middle" x="1002" y="-229.8" font-family="Times,serif" font-size="14.00">AppComponent </text>
</g>
<!-- AppModule&#45;&gt;AppComponent  -->
<g id="edge14" class="edge">
<title>AppModule&#45;&gt;AppComponent </title>
<path fill="none" stroke="black" stroke-dasharray="1,5" d="M1002,-187.11C1002,-187.11 1002,-205.99 1002,-205.99"/>
<polygon fill="black" stroke="black" points="998.5,-205.99 1002,-215.99 1005.5,-205.99 998.5,-205.99"/>
</g>
<!-- AppRoutingModule -->
<g id="node14" class="node">
<title>AppRoutingModule</title>
<polygon fill="#8dd3c7" stroke="black" points="152.27,-122 149.27,-126 128.27,-126 125.27,-122 23.73,-122 23.73,-86 152.27,-86 152.27,-122"/>
<text text-anchor="middle" x="88" y="-99.8" font-family="Times,serif" font-size="14.00">AppRoutingModule</text>
</g>
<!-- AppRoutingModule&#45;&gt;AppModule -->
<g id="edge13" class="edge">
<title>AppRoutingModule&#45;&gt;AppModule</title>
<path fill="none" stroke="black" d="M88,-122.09C88,-145.13 88,-182 88,-182 88,-182 950.05,-182 950.05,-182"/>
<polygon fill="black" stroke="black" points="950.05,-185.5 960.05,-182 950.05,-178.5 950.05,-185.5"/>
</g>
</g>
</svg>
